<svg xmlns="http://www.w3.org/2000/svg" version="1.1" xmlns:xlink="http://www.w3.org/1999/xlink" xmlns:svgjs="http://svgjs.dev/svgjs" width="1500" height="1500" viewBox="0 0 1500 1500"><rect width="1500" height="1500" fill="#000000"></rect><g transform="matrix(0.6666666666666666,0,0,0.6666666666666666,249.39393939393938,633.7397242807976)"><svg viewBox="0 0 396 92" data-background-color="#f7f4f5" preserveAspectRatio="xMidYMid meet" height="348" width="1500" xmlns="http://www.w3.org/2000/svg" xmlns:xlink="http://www.w3.org/1999/xlink"><g id="tight-bounds" transform="matrix(1,0,0,1,0.2400000000000091,0.10321278520092392)"><svg viewBox="0 0 395.52 91.79357442959812" height="91.79357442959812" width="395.52"><g><svg viewBox="0 0 548.2648936954076 127.24310863310353" height="91.79357442959812" width="395.52"><g transform="matrix(1,0,0,1,152.7448936954077,36.61564831350172)"><svg viewBox="0 0 395.5199999999999 54.01181200610009" height="54.01181200610009" width="395.5199999999999"><g id="textblocktransform"><svg viewBox="0 0 395.5199999999999 54.01181200610009" height="54.01181200610009" width="395.5199999999999" id="textblock"><g><svg viewBox="0 0 395.5199999999999 54.01181200610009" height="54.01181200610009" width="395.5199999999999"><g transform="matrix(1,0,0,1,0,0)"><svg width="395.5199999999999" viewBox="2.5 -36.75 360.62 49.25" height="54.01181200610009" data-palette-color="#ce1567"><path d="M36.5 0L23.5 0 23.5-1.75 27.5-1.75 27.75-2 27.75-31.5 27.5-31.75 23.5-31.75 23.5-33.5 36.5-33.5 36.5-31.75 32.5-31.75 32.25-31.5 32.25-2 32.5-1.75 36.5-1.75 36.5 0ZM15.5 0L2.5 0 2.5-1.75 6.5-1.75 6.75-2 6.75-31.5 6.5-31.75 2.5-31.75 2.5-33.5 15.5-33.5 15.5-31.75 11.5-31.75 11.25-31.5 11.25-2 11.5-1.75 15.5-1.75 15.5 0ZM28.75-16.5L10.25-16.5 10.25-18.25 28.75-18.25 28.75-16.5ZM53.75-1.5L53.75-1.5Q56.4-1.5 58.22-2.7 60.05-3.9 61.4-5.35L61.4-5.35 62.75-4.2Q61.7-2.95 60.37-1.88 59.05-0.8 57.27-0.15 55.5 0.5 53 0.5L53 0.5Q49.95 0.5 47.32-0.95 44.7-2.4 43.1-5.1 41.5-7.8 41.5-11.5L41.5-11.5Q41.5-15.2 43.1-17.9 44.7-20.6 47.32-22.05 49.95-23.5 53-23.5L53-23.5Q56.1-23.5 58.32-22.3 60.55-21.1 61.77-18.65 63-16.2 63-12.5L63-12.5 45.5-12.5 45.5-14.25 58.2-14.25Q58-17.85 56.77-19.8 55.55-21.75 52.75-21.75L52.75-21.75Q50.3-21.75 48.77-20.45 47.25-19.15 46.55-16.82 45.85-14.5 45.85-11.5L45.85-11.5Q45.85-8.55 46.95-6.3 48.05-4.05 49.85-2.78 51.65-1.5 53.75-1.5ZM78.75 0L66.75 0 66.75-1.75 70.5-1.75 70.75-2 70.75-34.5 70.5-34.75 66.75-34.75 66.75-36.5Q68.05-36.5 69.32-36.52 70.59-36.55 71.9-36.6 73.2-36.65 74.5-36.75L74.5-36.75 74.75-36.5 74.75-2 75-1.75 78.75-1.75 78.75 0ZM98.09-23.5L98.09-23.5Q101.09-23.5 103.42-22.03 105.74-20.55 107.07-17.88 108.39-15.2 108.39-11.6L108.39-11.6Q108.39-8 107.07-5.28 105.74-2.55 103.42-1.03 101.09 0.5 98.09 0.5L98.09 0.5Q94.94 0.5 93.02-0.9 91.09-2.3 90.14-4.25L90.14-4.25 90.14 10.5 90.39 10.75 96.14 10.75 96.14 12.5 82.14 12.5 82.14 10.75 85.89 10.75 86.14 10.5 86.14-21 85.89-21.25 82.14-21.25 82.14-23Q83.44-23 84.67-23.03 85.89-23.05 87.12-23.1 88.34-23.15 89.64-23.25L89.64-23.25 89.89-23 89.89-18.75 90.14-18.75Q91.09-20.5 93.12-22 95.14-23.5 98.09-23.5ZM97.39-1.75L97.39-1.75Q100.24-1.75 102.07-3.93 103.89-6.1 103.89-11L103.89-11Q103.89-15.9 102.07-18.57 100.24-21.25 97.39-21.25L97.39-21.25Q95.34-21.25 93.44-19.85 91.54-18.45 90.14-15.25L90.14-15.25 90.14-7.75Q91.54-4.55 93.44-3.15 95.34-1.75 97.39-1.75ZM125.64-1.5L125.64-1.5Q128.29-1.5 130.12-2.7 131.94-3.9 133.29-5.35L133.29-5.35 134.64-4.2Q133.59-2.95 132.27-1.88 130.94-0.8 129.17-0.15 127.39 0.5 124.89 0.5L124.89 0.5Q121.84 0.5 119.22-0.95 116.59-2.4 114.99-5.1 113.39-7.8 113.39-11.5L113.39-11.5Q113.39-15.2 114.99-17.9 116.59-20.6 119.22-22.05 121.84-23.5 124.89-23.5L124.89-23.5Q127.99-23.5 130.22-22.3 132.44-21.1 133.67-18.65 134.89-16.2 134.89-12.5L134.89-12.5 117.39-12.5 117.39-14.25 130.09-14.25Q129.89-17.85 128.67-19.8 127.44-21.75 124.64-21.75L124.64-21.75Q122.19-21.75 120.67-20.45 119.14-19.15 118.44-16.82 117.74-14.5 117.74-11.5L117.74-11.5Q117.74-8.55 118.84-6.3 119.94-4.05 121.74-2.78 123.54-1.5 125.64-1.5ZM147.49-14L147.49-17.5Q148.94-20.05 151.06-21.8 153.19-23.55 155.64-23.5L155.64-23.5Q156.89-23.5 157.66-23.05 158.44-22.6 158.79-21.88 159.14-21.15 159.14-20.25L159.14-20.25Q159.14-18.95 158.29-18.1 157.44-17.25 156.14-17.25L156.14-17.25Q154.84-17.25 153.99-18.1 153.14-18.95 153.14-20.25L153.14-20.25Q153.14-20.7 153.44-21.45 153.74-22.2 154.09-22.55L154.09-22.55 154.04-21.25Q153.09-20.95 152.09-20.25 151.09-19.55 149.96-18.1 148.84-16.65 147.49-14L147.49-14ZM147.49-17.5L147.49-2 147.74-1.75 153.49-1.75 153.49 0 139.49 0 139.49-1.75 143.24-1.75 143.49-2 143.49-21 143.24-21.25 139.49-21.25 139.49-23Q140.79-23 142.01-23.03 143.24-23.05 144.46-23.1 145.69-23.15 146.99-23.25L146.99-23.25 147.24-23 147.24-17.5 147.49-17.5ZM189.13 0L174.13 0 174.13-1.75 178.13-1.75 178.38-2 178.38-31.5 178.13-31.75 174.13-31.75 174.13-33.5 197.43-33.5 199.23-25.5 197.58-25Q196.88-27.65 195.73-29.1 194.58-30.55 192.71-31.15 190.83-31.75 187.93-31.75L187.93-31.75 183.13-31.75 182.88-31.5 182.88-15 180.63-17.25 188.53-17.25Q190.68-17.25 191.76-18.35 192.83-19.45 193.03-22.75L193.03-22.75 194.78-22.75 194.78-10 193.03-10Q192.83-13.3 191.76-14.4 190.68-15.5 188.53-15.5L188.53-15.5 180.63-15.5 182.88-17.75 182.88-2 183.13-1.75 189.13-1.75 189.13 0ZM213.13-23.5L213.13-23.5Q216.23-23.5 218.83-22.05 221.43-20.6 223.03-17.9 224.63-15.2 224.63-11.5L224.63-11.5Q224.63-7.8 223.03-5.1 221.43-2.4 218.83-0.95 216.23 0.5 213.13 0.5L213.13 0.5Q210.08 0.5 207.46-0.95 204.83-2.4 203.23-5.1 201.63-7.8 201.63-11.5L201.63-11.5Q201.63-15.2 203.23-17.9 204.83-20.6 207.46-22.05 210.08-23.5 213.13-23.5ZM213.38-1.25L213.38-1.25Q215.88-1.25 217.36-2.58 218.83-3.9 219.48-6.2 220.13-8.5 220.13-11.5L220.13-11.5Q220.13-14.45 219.18-16.78 218.23-19.1 216.61-20.43 214.98-21.75 212.88-21.75L212.88-21.75Q210.43-21.75 208.93-20.45 207.43-19.15 206.78-16.82 206.13-14.5 206.13-11.5L206.13-11.5Q206.13-8.55 207.08-6.23 208.03-3.9 209.66-2.58 211.28-1.25 213.38-1.25ZM237.73-14L237.73-17.5Q239.18-20.05 241.3-21.8 243.43-23.55 245.88-23.5L245.88-23.5Q247.13-23.5 247.9-23.05 248.68-22.6 249.03-21.88 249.38-21.15 249.38-20.25L249.38-20.25Q249.38-18.95 248.53-18.1 247.68-17.25 246.38-17.25L246.38-17.25Q245.08-17.25 244.23-18.1 243.38-18.95 243.38-20.25L243.38-20.25Q243.38-20.7 243.68-21.45 243.98-22.2 244.33-22.55L244.33-22.55 244.28-21.25Q243.33-20.95 242.33-20.25 241.33-19.55 240.2-18.1 239.08-16.65 237.73-14L237.73-14ZM237.73-17.5L237.73-2 237.98-1.75 243.73-1.75 243.73 0 229.73 0 229.73-1.75 233.48-1.75 233.73-2 233.73-21 233.48-21.25 229.73-21.25 229.73-23Q231.03-23 232.25-23.03 233.48-23.05 234.7-23.1 235.93-23.15 237.23-23.25L237.23-23.25 237.48-23 237.48-17.5 237.73-17.5ZM298.37 0L285.37 0 285.37-1.75 289.37-1.75 289.62-2 289.62-31.5 289.37-31.75 285.37-31.75 285.37-33.5 298.37-33.5 298.37-31.75 294.37-31.75 294.12-31.5 294.12-2 294.37-1.75 298.37-1.75 298.37 0ZM277.37 0L264.37 0 264.37-1.75 268.37-1.75 268.62-2 268.62-31.5 268.37-31.75 264.37-31.75 264.37-33.5 277.37-33.5 277.37-31.75 273.37-31.75 273.12-31.5 273.12-2 273.37-1.75 277.37-1.75 277.37 0ZM290.62-16.5L272.12-16.5 272.12-18.25 290.62-18.25 290.62-16.5ZM314.87 0L302.87 0 302.87-1.75 306.62-1.75 306.87-2 306.87-21 306.62-21.25 302.87-21.25 302.87-23Q304.17-23 305.44-23.03 306.72-23.05 308.02-23.1 309.32-23.15 310.62-23.25L310.62-23.25 310.87-23 310.87-2 311.12-1.75 314.87-1.75 314.87 0ZM308.62-28.5L308.62-28.5Q307.52-28.5 306.69-29.33 305.87-30.15 305.87-31.25L305.87-31.25Q305.87-32.4 306.69-33.2 307.52-34 308.62-34L308.62-34Q309.77-34 310.57-33.2 311.37-32.4 311.37-31.25L311.37-31.25Q311.37-30.15 310.57-29.33 309.77-28.5 308.62-28.5ZM327.47-14L327.47-17.5Q328.92-20.05 331.04-21.8 333.17-23.55 335.62-23.5L335.62-23.5Q336.87-23.5 337.64-23.05 338.42-22.6 338.77-21.88 339.12-21.15 339.12-20.25L339.12-20.25Q339.12-18.95 338.27-18.1 337.42-17.25 336.12-17.25L336.12-17.25Q334.82-17.25 333.97-18.1 333.12-18.95 333.12-20.25L333.12-20.25Q333.12-20.7 333.42-21.45 333.72-22.2 334.07-22.55L334.07-22.55 334.02-21.25Q333.07-20.95 332.07-20.25 331.07-19.55 329.94-18.1 328.82-16.65 327.47-14L327.47-14ZM327.47-17.5L327.47-2 327.72-1.75 333.47-1.75 333.47 0 319.47 0 319.47-1.75 323.22-1.75 323.47-2 323.47-21 323.22-21.25 319.47-21.25 319.47-23Q320.77-23 321.99-23.03 323.22-23.05 324.44-23.1 325.67-23.15 326.97-23.25L326.97-23.25 327.22-23 327.22-17.5 327.47-17.5ZM353.87-1.5L353.87-1.5Q356.51-1.5 358.34-2.7 360.17-3.9 361.51-5.35L361.51-5.35 362.87-4.2Q361.81-2.95 360.49-1.88 359.17-0.8 357.39-0.15 355.62 0.5 353.12 0.5L353.12 0.5Q350.06 0.5 347.44-0.95 344.81-2.4 343.22-5.1 341.62-7.8 341.62-11.5L341.62-11.5Q341.62-15.2 343.22-17.9 344.81-20.6 347.44-22.05 350.06-23.5 353.12-23.5L353.12-23.5Q356.22-23.5 358.44-22.3 360.67-21.1 361.89-18.65 363.12-16.2 363.12-12.5L363.12-12.5 345.62-12.5 345.62-14.25 358.31-14.25Q358.12-17.85 356.89-19.8 355.67-21.75 352.87-21.75L352.87-21.75Q350.42-21.75 348.89-20.45 347.37-19.15 346.67-16.82 345.97-14.5 345.97-11.5L345.97-11.5Q345.97-8.55 347.06-6.3 348.17-4.05 349.97-2.78 351.76-1.5 353.87-1.5Z" opacity="1" transform="matrix(1,0,0,1,0,0)" fill="#ffffff" class="wordmark-text-0" data-fill-palette-color="primary" id="text-0"></path></svg></g></svg></g></svg></g></svg></g><g><svg viewBox="0 0 127.24310863310353 127.24310863310353" height="127.24310863310353" width="127.24310863310353"><g><svg></svg></g><g id="icon-0"><svg viewBox="0 0 127.24310863310353 127.24310863310353" height="127.24310863310353" width="127.24310863310353"><g><path d="M0 63.622c0-35.137 28.484-63.622 63.622-63.622 35.137 0 63.622 28.484 63.621 63.622 0 35.137-28.484 63.622-63.621 63.621-35.137 0-63.622-28.484-63.622-63.621zM63.622 122.372c32.447 0 58.751-26.304 58.75-58.75 0-32.447-26.304-58.751-58.75-58.751-32.447 0-58.751 26.304-58.751 58.751 0 32.447 26.304 58.751 58.751 58.75z" data-fill-palette-color="accent" fill="#ffffff" stroke="transparent"></path></g><g transform="matrix(1,0,0,1,28.16045157960434,30.72048010285642)"><svg viewBox="0 0 70.92220547389485 65.80214842739069" height="65.80214842739069" width="70.92220547389485"><g><svg xmlns="http://www.w3.org/2000/svg" xmlns:xlink="http://www.w3.org/1999/xlink" version="1.1" x="0" y="0" viewBox="9.999991300000003 12.887695200000003 80.00001720289349 74.22460949999999" style="enable-background:new 0 0 100 100;" xml:space="preserve" height="65.80214842739069" width="70.92220547389485" class="icon-cg-0" data-fill-palette-color="accent" id="cg-0"><g fill="#ce1567" data-fill-palette-color="accent"><path d="M77.85 66.628l-5.915 5.915c-0.381 0.381-0.381 0.999 0 1.38 0.191 0.191 0.44 0.286 0.69 0.286s0.499-0.095 0.69-0.286l5.915-5.915c0.381-0.381 0.381-0.999 0-1.38C78.849 66.247 78.232 66.247 77.85 66.628z" fill="#ffffff" data-fill-palette-color="accent"></path><path d="M61.629 19.611c2.093 0 3.796 1.7 3.796 3.788 0 0.539 0.437 0.976 0.976 0.976s0.976-0.436 0.975-0.976c0-2.089 1.699-3.788 3.788-3.788 0.539 0 0.976-0.436 0.976-0.976 0-0.539-0.437-0.976-0.976-0.976-2.089 0-3.788-1.703-3.788-3.796 0-0.539-0.437-0.976-0.975-0.975s-0.976 0.436-0.976 0.975c0 2.093-1.703 3.796-3.796 3.796-0.539 0-0.976 0.436-0.976 0.976C60.653 19.174 61.09 19.611 61.629 19.611zM66.4 17.065c0.416 0.619 0.949 1.153 1.567 1.569-0.618 0.416-1.151 0.95-1.567 1.567-0.416-0.617-0.95-1.151-1.57-1.567C65.449 18.218 65.983 17.684 66.4 17.065z" fill="#ffffff" data-fill-palette-color="accent"></path><path d="M88.447 44.128c-0.149-1.629-0.898-3.132-2.11-4.232-1.21-1.101-2.775-1.707-4.408-1.708-3.352 0-6.149 2.513-6.506 5.845L73.977 57.637l-4.024 4.023c-0.221-0.389-0.493-0.748-0.814-1.069-0.944-0.95-2.201-1.475-3.538-1.477-0.003 0-0.006 0-0.008 0-1.334 0-2.589 0.52-3.533 1.464l-7.429 7.406c-1.466 1.46-2.307 3.484-2.306 5.555v7.172 5.426c0 0.539 0.437 0.976 0.975 0.975h18.666c0.539 0 0.976-0.436 0.976-0.975v-4.739l14.709-14.71c1.517-1.517 2.353-3.535 2.349-5.771L88.447 44.128zM86.272 65.309L71.844 79.736H54.276v-6.197c0-1.555 0.631-3.076 1.733-4.173l7.43-7.408c0.576-0.576 1.341-0.893 2.154-0.892 0.002 0 0.003 0 0.005 0 0.815 0.002 1.581 0.321 2.159 0.903 0.443 0.443 0.737 1.007 0.847 1.625 0.031 0.176 0.046 0.352 0.047 0.528 0 0.817-0.316 1.58-0.895 2.156-0.001 0.002-0.003 0.004-0.005 0.005-0.002 0.001-0.003 0.003-0.005 0.005l-4.968 4.947c-0.383 0.379-0.385 0.997-0.006 1.38 0.38 0.383 0.997 0.385 1.38 0.005l4.97-4.949c0.954-0.942 1.48-2.203 1.48-3.549 0-0.007 0-0.013 0-0.02 0-0.107-0.004-0.213-0.012-0.32l5.01-5.01c0.158-0.157 0.257-0.365 0.281-0.587l1.482-13.946c0.251-2.337 2.214-4.1 4.566-4.099 1.146 0 2.245 0.426 3.095 1.199 0.849 0.772 1.375 1.826 1.48 2.967l1.549 16.701C88.053 62.609 87.404 64.177 86.272 65.309z" fill="#ffffff" data-fill-palette-color="accent"></path><path d="M37.945 60.579c-0.946-0.946-2.175-1.462-3.542-1.465-1.337 0.002-2.594 0.527-3.535 1.475-0.322 0.321-0.595 0.681-0.816 1.071l-4.025-4.023-1.446-13.605c-0.357-3.331-3.154-5.844-6.506-5.844-1.633 0-3.198 0.606-4.407 1.707-1.212 1.101-1.962 2.604-2.111 4.232l-1.557 16.88c0 2.147 0.836 4.165 2.353 5.681l14.71 14.71v4.739c0 0.539 0.437 0.976 0.975 0.975h18.666c0.539 0 0.976-0.436 0.976-0.975v-5.426-7.172c0-2.07-0.841-4.095-2.307-5.555L37.945 60.579zM45.728 79.736H28.16l-14.427-14.427c-1.132-1.132-1.781-2.699-1.786-4.213l1.553-16.791c0.105-1.141 0.63-2.194 1.48-2.967 0.85-0.773 1.949-1.199 3.095-1.198 2.352 0 4.316 1.763 4.566 4.098l1.482 13.947c0.024 0.222 0.123 0.43 0.281 0.587l5.01 5.01c-0.008 0.113-0.012 0.227-0.012 0.34 0 0.011 0 0.024 0 0.036 0.009 1.331 0.532 2.575 1.473 3.506 0.001 0.002 0.003 0.003 0.005 0.005l4.972 4.951c0.383 0.378 1 0.376 1.38-0.005 0.379-0.383 0.376-1-0.006-1.38l-4.966-4.946c-0.002-0.002-0.004-0.004-0.007-0.006-0.58-0.574-0.899-1.341-0.899-2.161 0-0.004 0-0.009 0-0.012 0.001-0.171 0.016-0.342 0.045-0.514 0.112-0.621 0.405-1.184 0.851-1.629 0.576-0.58 1.342-0.899 2.156-0.901 0.002 0 0.003 0 0.006 0 0.813 0 1.578 0.317 2.154 0.893l7.43 7.407c1.101 1.098 1.732 2.618 1.732 4.173V79.736z" fill="#ffffff" data-fill-palette-color="accent"></path><path d="M70.995 28.482c0 2.093-1.703 3.797-3.797 3.797-0.539 0-0.976 0.436-0.975 0.976 0 0.539 0.437 0.976 0.975 0.975 2.093 0 3.796 1.7 3.797 3.789 0 0.539 0.437 0.976 0.975 0.975 0.539 0 0.976-0.436 0.976-0.975 0-2.089 1.699-3.788 3.788-3.789 0.539 0 0.976-0.436 0.975-0.975 0-0.539-0.437-0.976-0.975-0.976-2.089 0-3.788-1.704-3.788-3.797 0-0.539-0.437-0.976-0.976-0.976C71.431 27.506 70.995 27.943 70.995 28.482zM73.537 33.254c-0.618 0.416-1.151 0.95-1.568 1.567-0.416-0.617-0.95-1.151-1.569-1.567 0.619-0.416 1.153-0.951 1.569-1.57C72.386 32.303 72.919 32.837 73.537 33.254z" fill="#ffffff" data-fill-palette-color="accent"></path><path d="M82.607 61.872l-1.098 1.097c-0.381 0.381-0.381 0.999 0 1.38 0.191 0.191 0.44 0.286 0.69 0.286s0.499-0.095 0.69-0.286l1.097-1.098c0.381-0.381 0.381-0.999 0-1.379C83.605 61.491 82.988 61.491 82.607 61.872z" fill="#ffffff" data-fill-palette-color="accent"></path><path d="M56.586 59.8c0.539 0 0.976-0.436 0.976-0.975V42.342h2.576c0.539 0 0.976-0.436 0.975-0.975v-7.939c0-3.983-2.917-7.289-6.724-7.918 1.105-1.117 1.79-2.65 1.79-4.342 0-3.406-2.771-6.177-6.177-6.177s-6.177 2.771-6.176 6.177c0 1.691 0.685 3.225 1.789 4.342-3.808 0.629-6.724 3.935-6.724 7.918v7.939c0 0.539 0.437 0.976 0.976 0.975h2.575v16.483c0 0.539 0.437 0.976 0.976 0.975h5.608V48.435c0-0.539 0.437-0.976 0.976-0.975s0.976 0.436 0.976 0.975V59.8H56.586z" fill="#ffffff" data-fill-palette-color="accent"></path><path d="M22.066 31.155c3.2 0 5.804 2.598 5.804 5.792 0 0.539 0.437 0.976 0.976 0.975 0.539 0 0.976-0.436 0.975-0.975 0-3.194 2.599-5.792 5.793-5.792 0.539 0 0.976-0.436 0.976-0.976 0-0.539-0.437-0.976-0.976-0.976-3.194 0-5.792-2.604-5.793-5.804 0-0.539-0.437-0.976-0.975-0.976-0.539 0-0.976 0.436-0.976 0.976 0 3.2-2.604 5.804-5.804 5.804-0.539 0-0.976 0.436-0.975 0.976C21.091 30.718 21.527 31.155 22.066 31.155zM28.845 27.163c0.704 1.263 1.749 2.311 3.01 3.015-1.262 0.703-2.307 1.748-3.01 3.01-0.704-1.262-1.751-2.307-3.014-3.01C27.094 29.474 28.141 28.427 28.845 27.163z" fill="#ffffff" data-fill-palette-color="accent"></path></g></svg></g></svg></g></svg></g></svg></g></svg></g><defs></defs></svg><rect width="395.52" height="91.79357442959812" fill="none" stroke="none" visibility="hidden"></rect></g></svg></g></svg>